<mxfile host="Electron" agent="Mozilla/5.0 (Windows NT 10.0; Win64; x64) AppleWebKit/537.36 (KHTML, like Gecko) draw.io/26.0.9 Chrome/128.0.6613.186 Electron/32.2.5 Safari/537.36" version="26.0.9">
  <diagram name="Página-1" id="fDGmJOZ0ltmRqxrxrZtw">
    <mxGraphModel dx="1260" dy="760" grid="1" gridSize="10" guides="1" tooltips="1" connect="1" arrows="1" fold="1" page="1" pageScale="1" pageWidth="827" pageHeight="1169" math="0" shadow="0">
      <root>
        <mxCell id="0" />
        <mxCell id="1" parent="0" />
        <mxCell id="OK4tsYsu8K-u2DUY8mzx-1" value="inicio" style="ellipse;whiteSpace=wrap;html=1;" vertex="1" parent="1">
          <mxGeometry x="294" y="40" width="106" height="50" as="geometry" />
        </mxCell>
        <mxCell id="OK4tsYsu8K-u2DUY8mzx-3" value="cont = 0" style="rounded=0;whiteSpace=wrap;html=1;" vertex="1" parent="1">
          <mxGeometry x="460" y="180" width="90" height="40" as="geometry" />
        </mxCell>
        <mxCell id="OK4tsYsu8K-u2DUY8mzx-7" value="resto = n % cont" style="rounded=0;whiteSpace=wrap;html=1;" vertex="1" parent="1">
          <mxGeometry x="292" y="250" width="110" height="40" as="geometry" />
        </mxCell>
        <mxCell id="OK4tsYsu8K-u2DUY8mzx-9" value="if&lt;div&gt;resto = 0&lt;/div&gt;" style="rhombus;whiteSpace=wrap;html=1;" vertex="1" parent="1">
          <mxGeometry x="302" y="320" width="90" height="90" as="geometry" />
        </mxCell>
        <mxCell id="OK4tsYsu8K-u2DUY8mzx-10" value="&quot;Digite um numero&quot;" style="shape=document;whiteSpace=wrap;html=1;boundedLbl=1;" vertex="1" parent="1">
          <mxGeometry x="298.5" y="120" width="97" height="50" as="geometry" />
        </mxCell>
        <mxCell id="OK4tsYsu8K-u2DUY8mzx-11" value="" style="endArrow=classic;html=1;rounded=0;exitX=0.5;exitY=1;exitDx=0;exitDy=0;entryX=0.5;entryY=0;entryDx=0;entryDy=0;" edge="1" parent="1" source="OK4tsYsu8K-u2DUY8mzx-1" target="OK4tsYsu8K-u2DUY8mzx-10">
          <mxGeometry width="50" height="50" relative="1" as="geometry">
            <mxPoint x="380" y="300" as="sourcePoint" />
            <mxPoint x="430" y="250" as="targetPoint" />
          </mxGeometry>
        </mxCell>
        <mxCell id="OK4tsYsu8K-u2DUY8mzx-13" value="" style="endArrow=classic;html=1;rounded=0;exitX=0.5;exitY=1;exitDx=0;exitDy=0;entryX=0.5;entryY=0;entryDx=0;entryDy=0;" edge="1" parent="1" source="OK4tsYsu8K-u2DUY8mzx-3" target="OK4tsYsu8K-u2DUY8mzx-27">
          <mxGeometry width="50" height="50" relative="1" as="geometry">
            <mxPoint x="470" y="290" as="sourcePoint" />
            <mxPoint x="505" y="220" as="targetPoint" />
          </mxGeometry>
        </mxCell>
        <mxCell id="OK4tsYsu8K-u2DUY8mzx-14" value="" style="endArrow=classic;html=1;rounded=0;exitX=0.5;exitY=1;exitDx=0;exitDy=0;entryX=0.5;entryY=0;entryDx=0;entryDy=0;" edge="1" parent="1" source="OK4tsYsu8K-u2DUY8mzx-7" target="OK4tsYsu8K-u2DUY8mzx-9">
          <mxGeometry width="50" height="50" relative="1" as="geometry">
            <mxPoint x="470" y="290" as="sourcePoint" />
            <mxPoint x="520" y="240" as="targetPoint" />
          </mxGeometry>
        </mxCell>
        <mxCell id="OK4tsYsu8K-u2DUY8mzx-15" value="cont" style="shape=document;whiteSpace=wrap;html=1;boundedLbl=1;" vertex="1" parent="1">
          <mxGeometry x="307" y="440" width="80" height="50" as="geometry" />
        </mxCell>
        <mxCell id="OK4tsYsu8K-u2DUY8mzx-16" value="" style="endArrow=classic;html=1;rounded=0;exitX=0.5;exitY=1;exitDx=0;exitDy=0;entryX=0.5;entryY=0;entryDx=0;entryDy=0;" edge="1" parent="1" source="OK4tsYsu8K-u2DUY8mzx-9" target="OK4tsYsu8K-u2DUY8mzx-15">
          <mxGeometry width="50" height="50" relative="1" as="geometry">
            <mxPoint x="470" y="410" as="sourcePoint" />
            <mxPoint x="520" y="360" as="targetPoint" />
          </mxGeometry>
        </mxCell>
        <mxCell id="OK4tsYsu8K-u2DUY8mzx-18" value="fim" style="ellipse;whiteSpace=wrap;html=1;" vertex="1" parent="1">
          <mxGeometry x="600" y="338" width="86" height="50" as="geometry" />
        </mxCell>
        <mxCell id="OK4tsYsu8K-u2DUY8mzx-21" value="if&lt;div&gt;cont &amp;lt; n&lt;/div&gt;" style="rhombus;whiteSpace=wrap;html=1;" vertex="1" parent="1">
          <mxGeometry x="465" y="325" width="80" height="80" as="geometry" />
        </mxCell>
        <mxCell id="OK4tsYsu8K-u2DUY8mzx-26" value="" style="endArrow=classic;html=1;rounded=0;entryX=1;entryY=0.25;entryDx=0;entryDy=0;exitX=0.5;exitY=1;exitDx=0;exitDy=0;" edge="1" parent="1" source="OK4tsYsu8K-u2DUY8mzx-21" target="OK4tsYsu8K-u2DUY8mzx-15">
          <mxGeometry width="50" height="50" relative="1" as="geometry">
            <mxPoint x="600" y="545" as="sourcePoint" />
            <mxPoint x="610" y="360" as="targetPoint" />
            <Array as="points">
              <mxPoint x="505" y="453" />
            </Array>
          </mxGeometry>
        </mxCell>
        <mxCell id="OK4tsYsu8K-u2DUY8mzx-27" value="cont = cont +1" style="rounded=0;whiteSpace=wrap;html=1;" vertex="1" parent="1">
          <mxGeometry x="450" y="245" width="110" height="50" as="geometry" />
        </mxCell>
        <mxCell id="OK4tsYsu8K-u2DUY8mzx-28" value="" style="endArrow=classic;html=1;rounded=0;exitX=0;exitY=0.5;exitDx=0;exitDy=0;entryX=1;entryY=0.5;entryDx=0;entryDy=0;" edge="1" parent="1" source="OK4tsYsu8K-u2DUY8mzx-27" target="OK4tsYsu8K-u2DUY8mzx-7">
          <mxGeometry width="50" height="50" relative="1" as="geometry">
            <mxPoint x="560" y="310" as="sourcePoint" />
            <mxPoint x="610" y="260" as="targetPoint" />
          </mxGeometry>
        </mxCell>
        <mxCell id="OK4tsYsu8K-u2DUY8mzx-31" value="não" style="text;html=1;align=center;verticalAlign=middle;resizable=0;points=[];autosize=1;strokeColor=none;fillColor=none;" vertex="1" parent="1">
          <mxGeometry x="450" y="518" width="40" height="30" as="geometry" />
        </mxCell>
        <mxCell id="OK4tsYsu8K-u2DUY8mzx-33" value="leia n" style="shape=parallelogram;perimeter=parallelogramPerimeter;whiteSpace=wrap;html=1;fixedSize=1;" vertex="1" parent="1">
          <mxGeometry x="298" y="190" width="104" height="40" as="geometry" />
        </mxCell>
        <mxCell id="OK4tsYsu8K-u2DUY8mzx-35" value="" style="endArrow=classic;html=1;rounded=0;exitX=0.5;exitY=0;exitDx=0;exitDy=0;entryX=0.5;entryY=1;entryDx=0;entryDy=0;" edge="1" parent="1" source="OK4tsYsu8K-u2DUY8mzx-21" target="OK4tsYsu8K-u2DUY8mzx-27">
          <mxGeometry width="50" height="50" relative="1" as="geometry">
            <mxPoint x="550" y="400" as="sourcePoint" />
            <mxPoint x="510" y="380" as="targetPoint" />
          </mxGeometry>
        </mxCell>
        <mxCell id="OK4tsYsu8K-u2DUY8mzx-38" value="" style="endArrow=classic;html=1;rounded=0;exitX=0.521;exitY=0.821;exitDx=0;exitDy=0;exitPerimeter=0;entryX=0.5;entryY=0;entryDx=0;entryDy=0;" edge="1" parent="1" source="OK4tsYsu8K-u2DUY8mzx-10" target="OK4tsYsu8K-u2DUY8mzx-33">
          <mxGeometry width="50" height="50" relative="1" as="geometry">
            <mxPoint x="550" y="400" as="sourcePoint" />
            <mxPoint x="600" y="350" as="targetPoint" />
          </mxGeometry>
        </mxCell>
        <mxCell id="OK4tsYsu8K-u2DUY8mzx-40" value="" style="endArrow=classic;html=1;rounded=0;exitX=1;exitY=0.25;exitDx=0;exitDy=0;entryX=0;entryY=0.5;entryDx=0;entryDy=0;" edge="1" parent="1" source="OK4tsYsu8K-u2DUY8mzx-33" target="OK4tsYsu8K-u2DUY8mzx-3">
          <mxGeometry width="50" height="50" relative="1" as="geometry">
            <mxPoint x="550" y="400" as="sourcePoint" />
            <mxPoint x="450" y="201" as="targetPoint" />
          </mxGeometry>
        </mxCell>
        <mxCell id="OK4tsYsu8K-u2DUY8mzx-43" value="sim&lt;div&gt;&lt;br&gt;&lt;/div&gt;" style="text;html=1;align=center;verticalAlign=middle;resizable=0;points=[];autosize=1;strokeColor=none;fillColor=none;" vertex="1" parent="1">
          <mxGeometry x="307" y="410" width="40" height="40" as="geometry" />
        </mxCell>
        <mxCell id="OK4tsYsu8K-u2DUY8mzx-44" value="" style="endArrow=classic;html=1;rounded=0;exitX=1;exitY=0.5;exitDx=0;exitDy=0;entryX=0;entryY=0.5;entryDx=0;entryDy=0;" edge="1" parent="1" source="OK4tsYsu8K-u2DUY8mzx-9" target="OK4tsYsu8K-u2DUY8mzx-21">
          <mxGeometry width="50" height="50" relative="1" as="geometry">
            <mxPoint x="550" y="400" as="sourcePoint" />
            <mxPoint x="600" y="350" as="targetPoint" />
          </mxGeometry>
        </mxCell>
        <mxCell id="OK4tsYsu8K-u2DUY8mzx-45" value="não" style="text;html=1;align=center;verticalAlign=middle;resizable=0;points=[];autosize=1;strokeColor=none;fillColor=none;" vertex="1" parent="1">
          <mxGeometry x="402" y="338" width="40" height="30" as="geometry" />
        </mxCell>
        <mxCell id="OK4tsYsu8K-u2DUY8mzx-49" value="" style="endArrow=classic;html=1;rounded=0;exitX=1;exitY=0.5;exitDx=0;exitDy=0;entryX=0;entryY=0.5;entryDx=0;entryDy=0;" edge="1" parent="1" source="OK4tsYsu8K-u2DUY8mzx-21" target="OK4tsYsu8K-u2DUY8mzx-18">
          <mxGeometry width="50" height="50" relative="1" as="geometry">
            <mxPoint x="580" y="280" as="sourcePoint" />
            <mxPoint x="630" y="230" as="targetPoint" />
          </mxGeometry>
        </mxCell>
      </root>
    </mxGraphModel>
  </diagram>
</mxfile>
